<svg xmlns="http://www.w3.org/2000/svg" viewBox="0 0 512 512"><path d="M60 0H45C20.1 0 0 20.1 0 45v15c0 7.2 4.8 12.9 11.4 14.4 1.2.6 2.4.6 3.6.6h90c8.4 0 15-6.6 15-15 0-33-27-60-60-60z" fill="#a4d9f5"/><path d="M467 60v392.6L400.4 512H150c-33 0-60-27-60-60V45C90 22.8 73.5 0 45 0h362c33 0 60 27 60 60z" fill="#cae8f9"/><path d="M467 60v392.6L400.4 512H301V0h106c33 0 60 27 60 60z" fill="#b7e0f6"/><path d="M240 120h-75c-8.3 0-15-6.7-15-15s6.7-15 15-15h75c8.3 0 15 6.7 15 15s-6.7 15-15 15zm167 76c0 8.4-6.6 15-15 15H165c-8.4 0-15-6.6-15-15s6.6-15 15-15h227c8.4 0 15 6.6 15 15zm0 90c0 8.4-6.6 15-15 15H165c-8.4 0-15-6.6-15-15s6.6-15 15-15h227c8.4 0 15 6.6 15 15z" fill="#81c8ee"/><path d="M452 392H150c33 0 60 27 60 60s-27 60-60 60h302c33 0 60-27 60-60s-27-60-60-60z" fill="#a4d9f5"/><path d="M392 301h-91v-30h91c8.4 0 15 6.6 15 15s-6.6 15-15 15zm0-90h-91v-30h91c8.4 0 15 6.6 15 15s-6.6 15-15 15z" fill="#4dbbeb"/><path d="M512 452c0 33-27 60-60 60H301V392h151c33 0 60 27 60 60z" fill="#81c8ee"/></svg>